<?xml version="1.0" encoding="UTF-8" standalone="no"?>
<svg width="11px" height="16px" viewBox="0 0 11 16" version="1.1" xmlns="http://www.w3.org/2000/svg" xmlns:xlink="http://www.w3.org/1999/xlink">
    <!-- Generator: Sketch 3.6.1 (26313) - http://www.bohemiancoding.com/sketch -->
    <title>google</title>
    <desc>Created with Sketch.</desc>
    <defs></defs>
    <g id="Main" stroke="none" stroke-width="1" fill="none" fill-rule="evenodd">
        <g id="Artboard-6" transform="translate(-3.000000, 0.000000)" fill="#000000">
            <g id="google" transform="translate(3.000000, 0.000000)">
                <g id="7935ec95c421cee6d86eb22ecd1207e1">
                    <path d="M7.63121875,0.77196875 C7.763,0.85384375 7.9111875,0.97315625 8.0756875,1.129875 C8.23359375,1.293625 8.38875,1.49478125 8.53996875,1.733375 C8.685,1.95834375 8.81328125,2.22459375 8.92515625,2.5314375 C9.017125,2.83825 9.06359375,3.19615625 9.06359375,3.6055 C9.05115625,4.356 8.885375,4.956 8.566875,5.405875 C8.4105,5.6241875 8.24484375,5.825375 8.0698125,6.00978125 C7.87609375,6.1941875 7.66978125,6.3813125 7.45109375,6.57234375 C7.32634375,6.70178125 7.2105625,6.84875 7.10446875,7.01209375 C6.97934375,7.182875 6.91734375,7.38053125 6.91734375,7.60546875 C6.91734375,7.82378125 6.9813125,8.00465625 7.10959375,8.148125 C7.2183125,8.28459375 7.324,8.40390625 7.4265,8.50603125 L8.1380625,9.08925 C8.5805,9.45065625 8.9684375,9.8495 9.30140625,10.2861562 C9.6156875,10.7290313 9.779,11.309125 9.791875,12.0249375 C9.791875,13.0413125 9.34309375,13.9415 8.445625,14.7259062 C7.51509375,15.537625 6.172375,15.9570938 4.41759375,15.984375 C2.94859375,15.9707187 1.85153125,15.6576875 1.12715625,15.0448125 C0.39578125,14.4732813 0.03009375,13.7886875 0.03009375,12.9925938 C0.03009375,12.6042813 0.149,12.1723125 0.38721875,11.6959063 C0.618,11.2186875 1.0355625,10.8 1.640625,10.4397812 C2.31975,10.0514687 3.03359375,9.79259375 3.78096875,9.6635625 C4.5213125,9.5548125 5.1365,9.49359375 5.625375,9.4799375 C5.474125,9.281125 5.339625,9.06825 5.221125,8.842125 C5.0826875,8.62265625 5.0140625,8.3586875 5.0140625,8.04990625 C5.0140625,7.865125 5.04059375,7.71034375 5.0928125,7.58675 C5.13921875,7.4565625 5.1816875,7.336875 5.221125,7.2273125 C4.982875,7.25459375 4.7583125,7.267875 4.547,7.267875 C3.43084375,7.25459375 2.57975,6.90334375 1.9945625,6.21446875 C1.38171875,5.57353125 1.07565625,4.8265625 1.07565625,3.9743125 C1.07565625,2.9443125 1.5095625,2.0105625 2.37740625,1.17159375 C2.973875,0.68075 3.593375,0.36028125 4.23625,0.2098125 C4.8725,0.080375 5.46859375,0.01565625 6.02534375,0.01565625 L10.219875,0.01565625 L8.92478125,0.772 L7.63121875,0.772 L7.63121875,0.77196875 Z M8.44140625,12.8452188 C8.44140625,12.3126562 8.267875,11.849125 7.92053125,11.4534063 C7.55328125,11.0783438 6.979,10.6179375 6.1973125,10.072125 C6.064,10.0584687 5.90728125,10.0514687 5.72671875,10.0514687 C5.61990625,10.0382188 5.34621875,10.0514687 4.90528125,10.0927812 C4.471375,10.154 4.0269375,10.252625 3.573125,10.3890625 C3.4663125,10.430375 3.31621875,10.492 3.1220625,10.5734687 C2.9283125,10.6619687 2.7318125,10.7882813 2.5314375,10.952 C2.33765625,11.1227812 2.1743125,11.3340937 2.04059375,11.5867187 C1.887,11.852625 1.8101875,12.1730937 1.8101875,12.5485 C1.8101875,13.2849375 2.14390625,13.8923437 2.81175,14.3695312 C3.44646875,14.8475 4.31428125,15.09275 5.4164375,15.106375 C6.4043125,15.0927187 7.1595,14.8747812 7.67996875,14.4514062 C8.1875625,14.0350625 8.44140625,13.5001875 8.44140625,12.8452188 L8.44140625,12.8452188 Z M5.517,6.69709375 C6.06946875,6.67684375 6.52946875,6.47878125 6.89709375,6.10215625 C7.074875,5.83628125 7.18915625,5.5625625 7.239375,5.28265625 C7.2701875,5.00196875 7.28540625,4.76646875 7.28540625,4.5750625 C7.28540625,3.7481875 7.07409375,2.91465625 6.6506875,2.07371875 C6.452625,1.670625 6.19146875,1.34271875 5.86784375,1.08971875 C5.53725,0.85075 5.15715625,0.72403125 4.7275,0.710375 C4.15909375,0.72403125 3.6865625,0.952875 3.3095625,1.3973125 C2.99221875,1.86203125 2.83978125,2.3813125 2.85340625,2.95521875 C2.85340625,3.713875 3.075625,4.503375 3.5196875,5.32325 C3.7345,5.70609375 4.0116875,6.03084375 4.35165625,6.297125 C4.69165625,6.56375 5.08034375,6.69709375 5.517,6.69709375 L5.517,6.69709375 Z" id="Shape"></path>
                </g>
            </g>
        </g>
    </g>
</svg>